<svg xmlns="http://www.w3.org/2000/svg" xmlns:xlink="http://www.w3.org/1999/xlink" width="500" zoomAndPan="magnify" viewBox="0 0 375 374.999991" height="500" preserveAspectRatio="xMidYMid meet" version="1.0"><defs><g/><clipPath id="a114456bba"><path d="M 81.460938 0 L 293.710938 0 L 293.710938 227 L 81.460938 227 Z M 81.460938 0 " clip-rule="nonzero"/></clipPath><clipPath id="f56b602f87"><path d="M 149.164062 21.089844 L 225.664062 21.089844 L 225.664062 72.839844 L 149.164062 72.839844 Z M 149.164062 21.089844 " clip-rule="nonzero"/></clipPath><clipPath id="fd8ae1b087"><path d="M 98.152344 72.585938 L 276.652344 72.585938 L 276.652344 185 L 98.152344 185 Z M 98.152344 72.585938 " clip-rule="nonzero"/></clipPath></defs><path fill="#ffffff" d="M 179.015625 5.628906 L 95.457031 45.179688 C 88.671875 48.464844 84.324219 55.359375 84.324219 62.992188 L 84.429688 164.578125 C 84.429688 172.105469 88.777344 179.105469 95.667969 182.285156 L 179.121094 221.941406 C 184.421875 224.488281 190.679688 224.488281 195.980469 221.941406 L 279.539062 182.285156 C 286.429688 178.996094 290.777344 172.105469 290.777344 164.46875 L 290.777344 62.886719 C 290.777344 55.253906 286.429688 48.359375 279.539062 45.179688 L 195.875 5.628906 C 190.570312 3.082031 184.421875 3.082031 179.015625 5.628906 Z M 179.015625 5.628906 " fill-opacity="1" fill-rule="nonzero"/><g clip-path="url(#a114456bba)"><path fill="#ffffff" d="M 187.496094 226.714844 C 184.210938 226.714844 180.921875 225.972656 177.847656 224.488281 L 94.394531 184.828125 C 86.65625 181.117188 81.566406 173.164062 81.566406 164.578125 L 81.460938 62.992188 C 81.460938 54.296875 86.445312 46.34375 94.289062 42.632812 L 177.847656 3.082031 C 183.996094 0.21875 190.996094 0.21875 197.144531 3.082031 L 280.703125 42.738281 C 288.550781 46.453125 293.535156 54.402344 293.535156 62.992188 L 293.535156 164.578125 C 293.535156 173.164062 288.445312 181.222656 280.703125 184.9375 L 197.144531 224.59375 C 194.070312 225.972656 190.785156 226.714844 187.496094 226.714844 Z M 180.285156 8.171875 L 96.730469 47.722656 C 90.898438 50.480469 87.078125 56.523438 87.078125 62.992188 L 87.1875 164.578125 C 87.1875 171.046875 91.003906 176.984375 96.835938 179.738281 L 180.285156 219.398438 C 184.847656 221.625 190.148438 221.625 194.707031 219.398438 L 278.265625 179.738281 C 284.097656 176.984375 287.914062 171.046875 287.914062 164.578125 L 287.914062 62.992188 C 287.914062 56.523438 284.097656 50.585938 278.265625 47.828125 L 194.707031 8.171875 C 190.148438 5.945312 184.847656 5.945312 180.285156 8.171875 Z M 180.285156 8.171875 " fill-opacity="1" fill-rule="nonzero"/></g><g clip-path="url(#f56b602f87)"><path fill="#302b2b" d="M 222.753906 37.28125 C 222.753906 37.484375 222.753906 37.710938 222.699219 37.910156 L 217.976562 56.792969 C 217.75 57.738281 216.890625 58.421875 215.917969 58.421875 L 187.597656 58.566406 L 159.25 58.566406 C 158.277344 58.566406 157.417969 57.90625 157.160156 56.933594 L 152.441406 37.996094 C 152.382812 37.769531 152.382812 37.539062 152.382812 37.339844 C 150.550781 36.769531 149.234375 35.050781 149.234375 33.046875 C 149.234375 30.558594 151.265625 28.527344 153.757812 28.527344 C 156.246094 28.527344 158.277344 30.558594 158.277344 33.046875 C 158.277344 34.449219 157.648438 35.710938 156.617188 36.539062 L 162.539062 42.488281 C 163.996094 43.976562 166.085938 44.835938 168.203125 44.835938 C 170.71875 44.835938 173.09375 43.632812 174.609375 41.660156 L 184.308594 28.785156 C 183.480469 27.984375 182.992188 26.839844 182.992188 25.609375 C 182.992188 23.121094 185.023438 21.089844 187.511719 21.089844 C 190 21.089844 192.03125 23.121094 192.03125 25.609375 C 192.03125 26.8125 191.546875 27.898438 190.773438 28.730469 L 200.414062 41.628906 C 201.929688 43.632812 204.304688 44.835938 206.820312 44.835938 C 208.96875 44.835938 210.96875 44.003906 212.484375 42.488281 L 218.4375 36.539062 C 217.40625 35.710938 216.75 34.449219 216.75 33.019531 C 216.75 30.53125 218.78125 28.5 221.269531 28.5 C 223.757812 28.5 225.789062 30.53125 225.789062 33.019531 C 225.757812 34.992188 224.5 36.652344 222.753906 37.28125 Z M 217.519531 65.289062 C 217.519531 64.117188 216.546875 63.144531 215.375 63.144531 L 159.878906 63.144531 C 158.707031 63.144531 157.734375 64.117188 157.734375 65.289062 L 157.734375 70.4375 C 157.734375 71.609375 158.707031 72.582031 159.878906 72.582031 L 215.375 72.582031 C 216.546875 72.582031 217.519531 71.609375 217.519531 70.4375 Z M 217.519531 65.289062 " fill-opacity="1" fill-rule="nonzero"/></g><g clip-path="url(#fd8ae1b087)"><path fill="#822222" d="M 133.890625 72.585938 L 137.378906 72.585938 L 140.210938 72.871094 C 140.25 72.878906 140.285156 72.886719 140.320312 72.902344 C 140.492188 72.988281 140.800781 73.0625 141.246094 73.125 C 142.914062 73.359375 144.640625 74.019531 146.429688 75.105469 C 149.148438 76.753906 149.8125 79.78125 149.503906 82.796875 C 149.46875 83.148438 149.496094 83.347656 149.804688 83.566406 C 151.699219 84.921875 153.453125 86.398438 155.058594 87.988281 C 155.160156 88.082031 155.273438 88.132812 155.410156 88.132812 L 219.179688 88.132812 C 219.394531 88.132812 219.578125 88.054688 219.730469 87.898438 C 221.246094 86.355469 222.890625 84.960938 224.664062 83.710938 C 224.832031 83.59375 224.914062 83.433594 224.910156 83.230469 C 224.910156 81.746094 224.757812 79.980469 225.1875 78.660156 C 226.753906 73.824219 233.609375 72.847656 237.90625 72.585938 L 240.667969 72.585938 C 245.074219 72.972656 250.894531 73.660156 252.765625 78.429688 C 253.316406 79.824219 253.164062 81.816406 253.25 83.402344 C 253.253906 83.488281 253.292969 83.558594 253.363281 83.613281 C 258.464844 87.375 262.082031 91.75 264.0625 97.78125 C 264.414062 98.847656 264.816406 100.554688 265.273438 102.910156 C 268.839844 121.257812 272.429688 139.601562 276.046875 157.945312 C 276.378906 159.632812 276.636719 161.335938 276.824219 163.050781 L 276.824219 164.957031 C 276.175781 174.417969 269.941406 182.40625 260.5625 184.453125 C 259.347656 184.71875 258.054688 184.773438 256.777344 184.835938 L 256.183594 184.835938 C 250.253906 184.414062 244.8125 180.867188 241.875 175.707031 C 236.410156 166.101562 231.023438 156.445312 225.722656 146.746094 C 225.675781 146.664062 225.617188 146.65625 225.550781 146.71875 C 220.8125 151.136719 215.371094 153.230469 208.96875 151.9375 C 203.921875 150.917969 199.90625 147.507812 197.320312 143.171875 C 197.230469 143.019531 197.09375 142.941406 196.914062 142.941406 L 177.15625 142.941406 C 177.019531 142.941406 176.914062 143 176.839844 143.117188 C 173.148438 149.027344 167.734375 152.589844 160.726562 152.261719 C 156.175781 152.050781 152.078125 150.125 149.019531 146.75 C 148.96875 146.695312 148.90625 146.671875 148.832031 146.679688 C 148.757812 146.6875 148.699219 146.722656 148.664062 146.789062 C 143.289062 156.441406 137.9375 166.082031 132.605469 175.714844 C 127.382812 185.136719 115.949219 187.503906 107.171875 181.371094 C 101.972656 177.734375 98.972656 172.738281 98.167969 166.382812 L 98.167969 162.359375 C 98.300781 161.007812 98.453125 159.890625 98.625 159.015625 C 102.195312 140.578125 105.742188 122.140625 109.265625 103.695312 C 109.746094 101.1875 110.117188 99.472656 110.386719 98.554688 C 112.140625 92.515625 115.621094 87.65625 120.824219 83.976562 C 121.007812 83.847656 121.09375 83.675781 121.089844 83.453125 C 121.078125 82.460938 121.113281 81.449219 121.195312 80.417969 C 121.695312 74.066406 128.921875 73.027344 133.890625 72.585938 Z M 239.824219 99.25 C 240.191406 99.199219 240.546875 99.113281 240.894531 98.996094 C 241.242188 98.875 241.578125 98.71875 241.894531 98.53125 C 242.214844 98.34375 242.511719 98.128906 242.785156 97.878906 C 243.0625 97.632812 243.3125 97.359375 243.535156 97.0625 C 243.757812 96.765625 243.949219 96.445312 244.113281 96.109375 C 244.273438 95.773438 244.402344 95.421875 244.496094 95.0625 C 244.589844 94.699219 244.648438 94.328125 244.667969 93.953125 C 244.691406 93.578125 244.679688 93.207031 244.628906 92.832031 C 244.578125 92.460938 244.492188 92.097656 244.375 91.742188 C 244.253906 91.386719 244.101562 91.042969 243.914062 90.71875 C 243.730469 90.394531 243.515625 90.089844 243.269531 89.808594 C 243.027344 89.523438 242.757812 89.269531 242.464844 89.039062 C 242.171875 88.808594 241.859375 88.613281 241.527344 88.445312 C 241.195312 88.28125 240.851562 88.148438 240.496094 88.050781 C 240.140625 87.953125 239.777344 87.890625 239.410156 87.867188 C 239.042969 87.84375 238.675781 87.855469 238.3125 87.902344 C 237.945312 87.949219 237.589844 88.035156 237.242188 88.15625 C 236.890625 88.277344 236.558594 88.429688 236.238281 88.617188 C 235.921875 88.804688 235.625 89.023438 235.347656 89.269531 C 235.074219 89.519531 234.824219 89.789062 234.601562 90.089844 C 234.378906 90.386719 234.183594 90.703125 234.023438 91.039062 C 233.863281 91.378906 233.734375 91.726562 233.640625 92.089844 C 233.546875 92.453125 233.488281 92.820312 233.464844 93.195312 C 233.445312 93.570312 233.457031 93.945312 233.507812 94.316406 C 233.554688 94.691406 233.640625 95.054688 233.761719 95.410156 C 233.882812 95.765625 234.035156 96.105469 234.21875 96.433594 C 234.40625 96.757812 234.621094 97.0625 234.863281 97.34375 C 235.109375 97.625 235.378906 97.882812 235.671875 98.113281 C 235.964844 98.339844 236.277344 98.539062 236.609375 98.703125 C 236.9375 98.871094 237.28125 99.003906 237.640625 99.101562 C 237.996094 99.199219 238.355469 99.257812 238.726562 99.285156 C 239.09375 99.308594 239.460938 99.296875 239.824219 99.25 Z M 122.976562 102.15625 C 122.773438 102.328125 122.671875 102.546875 122.671875 102.8125 L 122.671875 109.089844 C 122.671875 109.191406 122.699219 109.28125 122.75 109.367188 C 123.265625 110.199219 123.875 110.492188 124.902344 110.496094 C 127.15625 110.515625 129.421875 110.527344 131.691406 110.539062 C 131.785156 110.539062 131.832031 110.582031 131.832031 110.675781 L 131.917969 118.738281 C 131.917969 118.792969 131.933594 118.84375 131.964844 118.890625 C 132.476562 119.628906 133.035156 119.933594 133.988281 119.9375 C 135.242188 119.945312 136.488281 119.964844 137.730469 120 C 139.25 120.042969 140.648438 119.742188 140.617188 117.980469 C 140.570312 115.535156 140.566406 113.09375 140.605469 110.65625 C 140.609375 110.566406 140.652344 110.519531 140.742188 110.519531 C 142.941406 110.460938 145.140625 110.464844 147.339844 110.539062 C 147.847656 110.558594 148.960938 110.257812 149.269531 109.855469 C 149.9375 108.992188 149.628906 106.738281 149.625 105.832031 C 149.621094 104.128906 150.316406 101.613281 147.632812 101.589844 C 145.292969 101.566406 143.007812 101.5625 140.773438 101.574219 C 140.691406 101.578125 140.621094 101.546875 140.5625 101.492188 C 140.503906 101.433594 140.472656 101.363281 140.46875 101.28125 C 140.378906 98.777344 140.328125 96.28125 140.324219 93.792969 C 140.320312 92.546875 139.476562 91.765625 138.265625 91.777344 C 136.691406 91.796875 135.125 91.820312 133.558594 91.847656 C 132.507812 91.867188 131.667969 92.40625 131.609375 93.566406 C 131.492188 95.945312 131.667969 98.003906 131.609375 101.421875 C 131.609375 101.511719 131.5625 101.558594 131.46875 101.5625 C 129.269531 101.578125 127.09375 101.582031 124.933594 101.570312 C 124.140625 101.566406 123.535156 101.695312 122.976562 102.15625 Z M 225.183594 112.851562 C 225.550781 112.847656 225.917969 112.804688 226.277344 112.726562 C 226.636719 112.648438 226.984375 112.535156 227.324219 112.382812 C 227.660156 112.234375 227.980469 112.054688 228.285156 111.84375 C 228.585938 111.628906 228.867188 111.386719 229.125 111.117188 C 229.378906 110.851562 229.609375 110.558594 229.808594 110.242188 C 230.007812 109.929688 230.175781 109.597656 230.308594 109.25 C 230.445312 108.898438 230.546875 108.542969 230.613281 108.171875 C 230.679688 107.804688 230.710938 107.433594 230.703125 107.058594 C 230.699219 106.683594 230.65625 106.3125 230.578125 105.945312 C 230.5 105.578125 230.386719 105.222656 230.242188 104.878906 C 230.09375 104.535156 229.917969 104.210938 229.707031 103.902344 C 229.5 103.59375 229.261719 103.308594 228.996094 103.046875 C 228.730469 102.789062 228.445312 102.554688 228.136719 102.351562 C 227.828125 102.148438 227.5 101.976562 227.15625 101.839844 C 226.816406 101.703125 226.460938 101.597656 226.101562 101.53125 C 225.738281 101.464844 225.371094 101.433594 225.003906 101.4375 C 224.636719 101.445312 224.273438 101.488281 223.910156 101.566406 C 223.550781 101.644531 223.203125 101.757812 222.863281 101.90625 C 222.527344 102.054688 222.207031 102.238281 221.902344 102.449219 C 221.601562 102.664062 221.320312 102.902344 221.0625 103.171875 C 220.808594 103.441406 220.578125 103.734375 220.378906 104.046875 C 220.179688 104.363281 220.011719 104.695312 219.878906 105.042969 C 219.742188 105.390625 219.640625 105.75 219.574219 106.117188 C 219.507812 106.488281 219.480469 106.859375 219.484375 107.234375 C 219.492188 107.609375 219.53125 107.980469 219.609375 108.34375 C 219.6875 108.710938 219.800781 109.066406 219.945312 109.410156 C 220.09375 109.753906 220.269531 110.082031 220.480469 110.390625 C 220.6875 110.699219 220.925781 110.984375 221.191406 111.242188 C 221.457031 111.503906 221.742188 111.738281 222.050781 111.941406 C 222.363281 112.144531 222.6875 112.3125 223.03125 112.453125 C 223.371094 112.589844 223.726562 112.691406 224.085938 112.761719 C 224.449219 112.828125 224.816406 112.859375 225.183594 112.851562 Z M 253.410156 112.882812 C 253.777344 112.878906 254.144531 112.839844 254.503906 112.761719 C 254.867188 112.6875 255.21875 112.574219 255.558594 112.425781 C 255.898438 112.28125 256.21875 112.101562 256.523438 111.890625 C 256.828125 111.679688 257.109375 111.4375 257.371094 111.167969 C 257.628906 110.902344 257.859375 110.609375 258.0625 110.296875 C 258.261719 109.980469 258.433594 109.648438 258.570312 109.300781 C 258.710938 108.953125 258.8125 108.59375 258.882812 108.222656 C 258.949219 107.855469 258.984375 107.480469 258.980469 107.105469 C 258.976562 106.730469 258.9375 106.355469 258.863281 105.988281 C 258.789062 105.621094 258.675781 105.261719 258.535156 104.917969 C 258.390625 104.570312 258.214844 104.242188 258.003906 103.929688 C 257.796875 103.621094 257.5625 103.332031 257.296875 103.070312 C 257.035156 102.804688 256.75 102.570312 256.441406 102.363281 C 256.132812 102.15625 255.808594 101.984375 255.464844 101.84375 C 255.121094 101.703125 254.769531 101.597656 254.40625 101.527344 C 254.042969 101.457031 253.679688 101.421875 253.308594 101.425781 C 252.941406 101.429688 252.574219 101.46875 252.214844 101.546875 C 251.851562 101.621094 251.503906 101.734375 251.164062 101.878906 C 250.824219 102.027344 250.5 102.207031 250.195312 102.417969 C 249.890625 102.628906 249.609375 102.871094 249.351562 103.136719 C 249.09375 103.40625 248.863281 103.699219 248.660156 104.011719 C 248.457031 104.328125 248.285156 104.660156 248.148438 105.007812 C 248.011719 105.355469 247.90625 105.714844 247.835938 106.085938 C 247.769531 106.453125 247.734375 106.828125 247.738281 107.203125 C 247.742188 107.578125 247.78125 107.953125 247.855469 108.320312 C 247.933594 108.6875 248.042969 109.046875 248.1875 109.390625 C 248.332031 109.738281 248.507812 110.066406 248.714844 110.378906 C 248.921875 110.6875 249.15625 110.976562 249.421875 111.238281 C 249.683594 111.503906 249.96875 111.738281 250.277344 111.945312 C 250.585938 112.148438 250.914062 112.324219 251.253906 112.464844 C 251.597656 112.605469 251.949219 112.710938 252.3125 112.78125 C 252.675781 112.851562 253.039062 112.886719 253.410156 112.882812 Z M 207.710938 108.289062 C 207.710938 107.988281 207.652344 107.695312 207.535156 107.417969 C 207.417969 107.140625 207.253906 106.894531 207.039062 106.679688 C 206.824219 106.464844 206.578125 106.300781 206.300781 106.1875 C 206.019531 106.070312 205.730469 106.015625 205.425781 106.015625 L 198.421875 106.027344 C 198.121094 106.027344 197.832031 106.085938 197.550781 106.203125 C 197.273438 106.316406 197.027344 106.484375 196.8125 106.699219 C 196.597656 106.910156 196.433594 107.15625 196.320312 107.4375 C 196.203125 107.71875 196.148438 108.007812 196.148438 108.308594 L 196.148438 108.515625 C 196.148438 108.816406 196.207031 109.109375 196.324219 109.386719 C 196.4375 109.667969 196.605469 109.914062 196.820312 110.125 C 197.03125 110.339844 197.28125 110.503906 197.558594 110.617188 C 197.839844 110.734375 198.128906 110.792969 198.429688 110.792969 L 205.433594 110.777344 C 205.738281 110.777344 206.027344 110.71875 206.308594 110.605469 C 206.585938 110.488281 206.832031 110.324219 207.046875 110.109375 C 207.257812 109.894531 207.421875 109.648438 207.539062 109.367188 C 207.652344 109.089844 207.710938 108.796875 207.710938 108.496094 Z M 168.921875 106.109375 C 166.554688 106.152344 166.078125 109.246094 167.867188 110.378906 C 168.285156 110.644531 168.96875 110.777344 169.925781 110.785156 C 172 110.800781 174.074219 110.78125 176.148438 110.726562 C 179.226562 110.648438 178.929688 106.039062 176.097656 106.042969 C 173.703125 106.046875 171.3125 106.066406 168.921875 106.109375 Z M 240.058594 115.054688 C 236.585938 114.351562 233.042969 117.472656 233.441406 121.117188 C 233.792969 124.324219 236.324219 126.761719 239.714844 126.421875 C 246.046875 125.789062 246.519531 116.363281 240.058594 115.054688 Z M 163.050781 119.921875 C 156.859375 118.824219 150.992188 123.890625 150.609375 130.015625 C 150.242188 135.988281 154.5 141.1875 160.550781 141.703125 C 168.152344 142.351562 174.042969 134.964844 171.855469 127.640625 C 170.632812 123.550781 167.210938 120.660156 163.050781 119.921875 Z M 201.792969 129.5 C 200.710938 139.28125 212.175781 145.679688 219.753906 139.03125 C 226.878906 132.777344 223.195312 120.964844 213.792969 119.867188 C 207.890625 119.171875 202.449219 123.546875 201.792969 129.5 Z M 201.792969 129.5 " fill-opacity="1" fill-rule="nonzero"/></g><g fill="#ffffff" fill-opacity="1"><g transform="translate(18.635943, 299.376777)"><g><path d="M 25.28125 1.125 C 20.75 1.125 16.347656 0.566406 12.078125 -0.546875 C 7.816406 -1.671875 4.351562 -3.171875 1.6875 -5.046875 L 6.875 -16.71875 C 9.382812 -15.0625 12.289062 -13.726562 15.59375 -12.71875 C 18.90625 -11.707031 22.160156 -11.203125 25.359375 -11.203125 C 31.441406 -11.203125 34.484375 -12.722656 34.484375 -15.765625 C 34.484375 -17.359375 33.613281 -18.539062 31.875 -19.3125 C 30.144531 -20.09375 27.359375 -20.910156 23.515625 -21.765625 C 19.304688 -22.671875 15.785156 -23.640625 12.953125 -24.671875 C 10.128906 -25.710938 7.703125 -27.378906 5.671875 -29.671875 C 3.648438 -31.972656 2.640625 -35.066406 2.640625 -38.953125 C 2.640625 -42.367188 3.570312 -45.445312 5.4375 -48.1875 C 7.300781 -50.9375 10.085938 -53.113281 13.796875 -54.71875 C 17.503906 -56.320312 22.050781 -57.125 27.4375 -57.125 C 31.113281 -57.125 34.738281 -56.707031 38.3125 -55.875 C 41.894531 -55.050781 45.046875 -53.835938 47.765625 -52.234375 L 42.875 -40.484375 C 37.539062 -43.359375 32.367188 -44.796875 27.359375 -44.796875 C 24.210938 -44.796875 21.914062 -44.328125 20.46875 -43.390625 C 19.03125 -42.460938 18.3125 -41.253906 18.3125 -39.765625 C 18.3125 -38.265625 19.164062 -37.140625 20.875 -36.390625 C 22.582031 -35.648438 25.332031 -34.878906 29.125 -34.078125 C 33.382812 -33.171875 36.914062 -32.195312 39.71875 -31.15625 C 42.519531 -30.113281 44.945312 -28.457031 47 -26.1875 C 49.050781 -23.925781 50.078125 -20.847656 50.078125 -16.953125 C 50.078125 -13.597656 49.144531 -10.5625 47.28125 -7.84375 C 45.414062 -5.125 42.613281 -2.945312 38.875 -1.3125 C 35.144531 0.3125 30.613281 1.125 25.28125 1.125 Z M 25.28125 1.125 "/></g></g></g><g fill="#ffffff" fill-opacity="1"><g transform="translate(71.990922, 299.376777)"><g><path d="M 17.515625 -43.4375 L 0.3125 -43.4375 L 0.3125 -56 L 50.484375 -56 L 50.484375 -43.4375 L 33.359375 -43.4375 L 33.359375 0 L 17.515625 0 Z M 17.515625 -43.4375 "/></g></g></g><g fill="#ffffff" fill-opacity="1"><g transform="translate(124.385994, 299.376777)"><g><path d="M 30.078125 -14.875 L 21.4375 -14.875 L 21.4375 0 L 5.59375 0 L 5.59375 -56 L 31.203125 -56 C 36.265625 -56 40.660156 -55.15625 44.390625 -53.46875 C 48.128906 -51.789062 51.007812 -49.390625 53.03125 -46.265625 C 55.0625 -43.148438 56.078125 -39.488281 56.078125 -35.28125 C 56.078125 -31.226562 55.128906 -27.691406 53.234375 -24.671875 C 51.347656 -21.660156 48.644531 -19.300781 45.125 -17.59375 L 57.203125 0 L 40.234375 0 Z M 40.078125 -35.28125 C 40.078125 -37.894531 39.25 -39.921875 37.59375 -41.359375 C 35.945312 -42.796875 33.492188 -43.515625 30.234375 -43.515625 L 21.4375 -43.515625 L 21.4375 -27.125 L 30.234375 -27.125 C 33.492188 -27.125 35.945312 -27.828125 37.59375 -29.234375 C 39.25 -30.648438 40.078125 -32.664062 40.078125 -35.28125 Z M 40.078125 -35.28125 "/></g></g></g><g fill="#ffffff" fill-opacity="1"><g transform="translate(185.180245, 299.376777)"><g><path d="M 50.5625 -12.234375 L 50.5625 0 L 5.59375 0 L 5.59375 -56 L 49.515625 -56 L 49.515625 -43.765625 L 21.28125 -43.765625 L 21.28125 -34.3125 L 46.15625 -34.3125 L 46.15625 -22.484375 L 21.28125 -22.484375 L 21.28125 -12.234375 Z M 50.5625 -12.234375 "/></g></g></g><g fill="#ffffff" fill-opacity="1"><g transform="translate(240.535038, 299.376777)"><g><path d="M 21.4375 -43.765625 L 21.4375 -31.4375 L 46.15625 -31.4375 L 46.15625 -19.203125 L 21.4375 -19.203125 L 21.4375 0 L 5.59375 0 L 5.59375 -56 L 49.515625 -56 L 49.515625 -43.765625 Z M 21.4375 -43.765625 "/></g></g></g><g fill="#ffffff" fill-opacity="1"><g transform="translate(293.490051, 299.376777)"><g><path d="M 43.125 -10.875 L 19.4375 -10.875 L 15.046875 0 L -1.125 0 L 23.59375 -56 L 39.203125 -56 L 64 0 L 47.515625 0 Z M 38.484375 -22.5625 L 31.28125 -40.484375 L 24.078125 -22.5625 Z M 38.484375 -22.5625 "/></g></g></g><g fill="#ffffff" fill-opacity="1"><g transform="translate(115.684997, 352.273952)"><g><path d="M 31.140625 -20.21875 L 39.421875 -20.21875 L 39.421875 -4.3125 C 37.296875 -2.707031 34.832031 -1.472656 32.03125 -0.609375 C 29.226562 0.242188 26.410156 0.671875 23.578125 0.671875 C 19.503906 0.671875 15.84375 -0.191406 12.59375 -1.921875 C 9.351562 -3.660156 6.804688 -6.070312 4.953125 -9.15625 C 3.109375 -12.238281 2.1875 -15.71875 2.1875 -19.59375 C 2.1875 -23.476562 3.109375 -26.957031 4.953125 -30.03125 C 6.804688 -33.113281 9.375 -35.523438 12.65625 -37.265625 C 15.9375 -39.003906 19.632812 -39.875 23.75 -39.875 C 27.175781 -39.875 30.289062 -39.296875 33.09375 -38.140625 C 35.894531 -36.984375 38.25 -35.300781 40.15625 -33.09375 L 34.328125 -27.71875 C 31.523438 -30.664062 28.144531 -32.140625 24.1875 -32.140625 C 21.6875 -32.140625 19.460938 -31.617188 17.515625 -30.578125 C 15.578125 -29.535156 14.066406 -28.0625 12.984375 -26.15625 C 11.910156 -24.25 11.375 -22.0625 11.375 -19.59375 C 11.375 -17.164062 11.910156 -15 12.984375 -13.09375 C 14.066406 -11.195312 15.570312 -9.71875 17.5 -8.65625 C 19.425781 -7.59375 21.617188 -7.0625 24.078125 -7.0625 C 26.691406 -7.0625 29.046875 -7.617188 31.140625 -8.734375 Z M 31.140625 -20.21875 "/></g></g></g><g fill="#ffffff" fill-opacity="1"><g transform="translate(159.974972, 352.273952)"><g><path d="M 4.640625 -39.203125 L 13.71875 -39.203125 L 13.71875 0 L 4.640625 0 Z M 4.640625 -39.203125 "/></g></g></g><g fill="#ffffff" fill-opacity="1"><g transform="translate(179.460404, 352.273952)"><g><path d="M 35 -7.28125 L 35 0 L 4.640625 0 L 4.640625 -39.203125 L 34.265625 -39.203125 L 34.265625 -31.921875 L 13.65625 -31.921875 L 13.65625 -23.40625 L 31.859375 -23.40625 L 31.859375 -16.359375 L 13.65625 -16.359375 L 13.65625 -7.28125 Z M 35 -7.28125 "/></g></g></g><g fill="#ffffff" fill-opacity="1"><g transform="translate(218.151166, 352.273952)"><g><path d="M 29.625 0 L 22.0625 -10.921875 L 13.71875 -10.921875 L 13.71875 0 L 4.640625 0 L 4.640625 -39.203125 L 21.609375 -39.203125 C 25.085938 -39.203125 28.101562 -38.625 30.65625 -37.46875 C 33.21875 -36.3125 35.1875 -34.664062 36.5625 -32.53125 C 37.945312 -30.40625 38.640625 -27.882812 38.640625 -24.96875 C 38.640625 -22.0625 37.9375 -19.550781 36.53125 -17.4375 C 35.132812 -15.332031 33.148438 -13.71875 30.578125 -12.59375 L 39.375 0 Z M 29.453125 -24.96875 C 29.453125 -27.175781 28.742188 -28.867188 27.328125 -30.046875 C 25.910156 -31.222656 23.835938 -31.8125 21.109375 -31.8125 L 13.71875 -31.8125 L 13.71875 -18.140625 L 21.109375 -18.140625 C 23.835938 -18.140625 25.910156 -18.738281 27.328125 -19.9375 C 28.742188 -21.132812 29.453125 -22.8125 29.453125 -24.96875 Z M 29.453125 -24.96875 "/></g></g></g></svg>